HIERARCHY
ROOT root
{
	OFFSET	0	13.1	24.9
	CHANNELS 6  Xposition Yposition Zposition Xrotation Yrotation Zrotation
	JOINT spine_1
	{
		OFFSET	0	9.99999	0
		CHANNELS 3  Xrotation Yrotation Zrotation
		JOINT spine_2
		{
			OFFSET	0	112	-10
			CHANNELS 3  Xrotation Yrotation Zrotation
			JOINT spine_3
			{
				OFFSET	0	206.5	19.3
				CHANNELS 3  Xrotation Yrotation Zrotation
				JOINT spine_4
				{
					OFFSET	0	110.4	14.6
					CHANNELS 3  Xrotation Yrotation Zrotation
					JOINT neck_1
					{
						OFFSET	0	71.8	-50.3
						CHANNELS 3  Xrotation Yrotation Zrotation
						JOINT neck_2
						{
							OFFSET	0	86.2	-25.8
							CHANNELS 3  Xrotation Yrotation Zrotation
							JOINT head_ee
							{
								OFFSET	0	179.8	-8.7
								CHANNELS 3  Xrotation Yrotation Zrotation
								End Site
								{
									OFFSET	1	0	0
								}
							}
						}
					}
					JOINT left_clavicle
					{
						OFFSET	-43.2	22.4	-70.8
						CHANNELS 3  Xrotation Yrotation Zrotation
						JOINT left_shoulder
						{
							OFFSET	-93.9	-5.79999	48.7
							CHANNELS 3  Xrotation Yrotation Zrotation
							JOINT left_elbow
							{
								OFFSET	-291.4	-30.8	15.2
								CHANNELS 3  Xrotation Yrotation Zrotation
								JOINT left_lowarm_twist
								{
									OFFSET	-110.7	-3.89999	13.6
									CHANNELS 3  Xrotation Yrotation Zrotation
									JOINT left_hand
									{
										OFFSET	-110.7	-3.89999	13.6
										CHANNELS 3  Xrotation Yrotation Zrotation
										JOINT left_ee
										{
											OFFSET	-80.8	-5.10001	12.1
											CHANNELS 3  Xrotation Yrotation Zrotation
											End Site
											{
												OFFSET	1	0	0
											}
										}
									}
								}
							}
						}
					}
					JOINT right_clavicle
					{
						OFFSET	43.2	22.4	-70.8
						CHANNELS 3  Xrotation Yrotation Zrotation
						JOINT right_shoulder
						{
							OFFSET	93.9	-5.79999	48.7
							CHANNELS 3  Xrotation Yrotation Zrotation
							JOINT right_elbow
							{
								OFFSET	291.4	-30.8	15.2
								CHANNELS 3  Xrotation Yrotation Zrotation
								JOINT right_lowarm_twist
								{
									OFFSET	110.7	-3.89999	13.6
									CHANNELS 3  Xrotation Yrotation Zrotation
									JOINT right_hand
									{
										OFFSET	110.7	-3.89999	13.6
										CHANNELS 3  Xrotation Yrotation Zrotation
										JOINT right_ee
										{
											OFFSET	80.8	-5.10001	12.1
											CHANNELS 3  Xrotation Yrotation Zrotation
											End Site
											{
												OFFSET	1	0	0
											}
										}
									}
								}
							}
						}
					}
				}
			}
		}
	}
	JOINT left_hip
	{
		OFFSET	-82.8	-127.5	0.300001
		CHANNELS 3  Xrotation Yrotation Zrotation
		JOINT left_knee
		{
			OFFSET	-28.2	-396.7	2.2
			CHANNELS 3  Xrotation Yrotation Zrotation
			JOINT left_ankle
			{
				OFFSET	-11.7	-411.3	35.4
				CHANNELS 3  Xrotation Yrotation Zrotation
				JOINT left_toes
				{
					OFFSET	0	-60	-88.6
					CHANNELS 3  Xrotation Yrotation Zrotation
					JOINT left_foot_ee
					{
						OFFSET	-22.5	-16.5	-42.2
						CHANNELS 3  Xrotation Yrotation Zrotation
						End Site
						{
							OFFSET	1	0	0
						}
					}
				}
			}
		}
	}
	JOINT right_hip
	{
		OFFSET	82.8	-127.5	0.300001
		CHANNELS 3  Xrotation Yrotation Zrotation
		JOINT right_knee
		{
			OFFSET	28.2	-396.7	2.2
			CHANNELS 3  Xrotation Yrotation Zrotation
			JOINT right_ankle
			{
				OFFSET	11.7	-411.3	35.4
				CHANNELS 3  Xrotation Yrotation Zrotation
				JOINT right_toes
				{
					OFFSET	0	-60	-88.6
					CHANNELS 3  Xrotation Yrotation Zrotation
					JOINT right_foot_ee
					{
						OFFSET	22.5	-16.5	-42.2
						CHANNELS 3  Xrotation Yrotation Zrotation
						End Site
						{
							OFFSET	1	0	0
						}
					}
				}
			}
		}
	}
}
MOTION
Frames: 13
Frame Time: 0.02
1352.58 721.213 -1379.65 -5.18845 81.0783 4.89726 0.949005 0.170599 2.7021 0.953068 -0.00162441 2.70748 0.953824 -0.526877 2.65576 0.943996 -0.100998 2.70559 -10.4021 4.59588 -4.33058 -10.3909 11.5606 -3.03878 -0.0 0.0 -0.0 -1.61781 12.9462 -1.14956 14.3024 -27.8611 67.0965 1.24 -31.5594 0.350422 -37.3805 -2.67698 3.86625 1.21245 3.47772 9.51424 -0.0 0.0 -0.0 8.40304 -2.96207 -16.3066 -20.7138 0.850687 -67.9879 0.643266 17.6749 -0.100014 83.4818 4.24568 8.79373 -3.29924 -28.6759 6.61547 0.0 0.0 0.0 1.37451 4.96708 -1.28474 3.94935 -0.182665 -0.57831 22.7817 -1.57556 -3.103 -11.8678 0.0 0.0 -0.0 0.0 -0.0 15.4036 10.5019 2.37784 -62.3858 2.46304 -8.78292 -5.24866 -10.7862 -0.777191 -17.9877 0.0 0.0 0.0 0.0 0.0 
1340.55 726.989 -1378.97 -0.900207 79.5654 0.860472 0.728049 0.172779 2.51973 0.731581 0.0121437 2.52561 0.733053 -0.487586 2.47816 0.724495 -0.0902181 2.52403 -10.2259 5.7989 -2.93958 -10.2535 12.8981 -1.39161 -0.0 0.0 -0.0 -0.75942 12.2238 0.174837 13.4772 -27.9208 65.0444 1.27482 -32.2713 0.368832 -35.5897 -2.4948 3.72625 -0.104124 1.088 -0.235328 -0.0 0.0 -0.0 8.82894 -2.9198 -17.1482 -21.9668 1.68798 -66.182 0.515109 14.3149 -0.0646851 84.2463 4.3365 8.83079 -4.22406 -27.9837 12.1318 0.0 0.0 0.0 -1.63113 5.07604 -0.924868 5.95499 -0.290614 -0.866935 21.0461 0.628411 -2.8774 -12.9178 0.0 0.0 -0.0 0.0 -0.0 17.838 12.2792 -0.648026 -62.8407 2.51441 -8.83077 -17.5377 -9.91315 -2.63412 -21.2728 0.0 0.0 0.0 0.0 0.0 
1327.4 725.679 -1373.17 -4.23693 77.2616 4.6348 0.901603 0.168332 2.26667 0.904461 0.0237948 2.27279 0.906049 -0.419357 2.23391 0.89909 -0.0613843 2.27208 -9.29978 4.35294 -4.25132 -9.27031 11.0876 -3.1371 -0.0 0.0 -0.0 0.52992 11.6941 2.27417 12.9486 -26.8717 62.7087 1.37017 -34.1647 0.421077 -33.4805 -2.286 3.55421 -0.483981 -2.28417 -4.21764 -0.0 0.0 -0.0 8.28153 -2.84555 -16.0721 -21.5649 2.75891 -65.2658 0.436 12.1878 -0.0465484 85.1847 4.44865 8.87461 -4.63405 -28.1551 14.3198 0.0 0.0 0.0 -2.31737 6.43505 -0.858261 5.9959 -0.292922 -0.872784 21.6252 1.73957 -2.94236 -12.0834 0.0 0.0 -0.0 0.0 -0.0 19.1788 11.166 -1.28925 -60.7073 2.27684 -8.6029 -18.7882 -9.10674 -2.82322 -23.5663 0.0 0.0 0.0 0.0 0.0 
1316.65 720.176 -1374.88 -4.21696 77.0834 5.15619 0.793345 0.0242789 1.93743 0.795428 -0.0990306 1.93505 0.792516 -0.477782 1.87777 0.787638 -0.175285 1.92964 -8.10859 4.53128 -3.14988 -8.08612 10.6803 -2.12708 -0.0 0.0 -0.0 1.17233 9.6226 3.17002 14.1898 -26.505 60.7832 1.41334 -34.9949 0.445576 -31.1579 -2.06358 3.35606 -1.04758 -1.97787 -7.88797 -0.0 0.0 -0.0 8.16584 -3.33517 -15.828 -22.8867 3.58973 -64.7241 0.394347 11.0536 -0.0381576 85.2141 4.45218 8.87596 -5.25129 -28.4431 17.6281 0.0 0.0 0.0 -3.43095 8.12094 -1.43076 5.81362 -0.282674 -0.846715 22.705 1.83875 -3.07214 -14.3689 0.0 0.0 -0.0 0.0 -0.0 20.7855 13.4758 -3.34843 -53.344 1.52571 -7.7526 -24.8644 -5.19546 -3.74627 -37.0723 0.0 0.0 0.0 0.0 0.0 
1301.46 716.687 -1373.92 -1.86666 75.3996 3.3375 0.826139 0.0148229 1.77434 0.827885 -0.0980947 1.77168 0.825195 -0.44372 1.71804 0.821115 -0.166864 1.76654 -7.49313 4.56902 -3.87921 -7.44587 11.2763 -2.9079 -0.0 0.0 -0.0 1.55261 8.62067 3.74612 14.8853 -26.4859 59.4126 1.45007 -35.6884 0.466822 -29.7361 -1.93148 3.23041 -1.34505 -1.49425 -9.69146 -0.0 0.0 -0.0 7.87819 -2.94006 -15.2791 -23.6656 4.11309 -64.1433 0.378634 10.6234 -0.035203 85.1711 4.44702 8.87399 -5.89419 -29.2054 20.7527 0.0 0.0 0.0 -3.8099 9.92958 -2.09082 2.1518 -0.0945725 -0.316625 26.3735 1.76345 -3.50024 -16.0973 0.0 0.0 -0.0 0.0 -0.0 20.6861 16.0152 -4.67169 -40.8969 0.524808 -6.12336 -23.7786 -2.77438 -3.5955 -40.2378 0.0 0.0 0.0 0.0 0.0 
1296.49 717.964 -1373.65 -2.0028 74.2089 4.02444 0.74973 0.1675 1.43935 0.75088 0.0755804 1.44709 0.75313 -0.211463 1.43355 0.750262 0.0175689 1.44895 -8.24739 5.17651 -3.82957 -8.21539 12.3609 -2.64424 -0.0 0.0 -0.0 1.99078 7.31258 4.41841 15.7511 -26.6948 58.7623 1.53346 -37.2189 0.516376 -30.0754 -1.96272 3.26069 -1.5336 -0.0589816 -10.3242 -0.0 0.0 -0.0 7.97681 -2.82452 -15.4752 -24.3068 5.13487 -62.984 0.360946 10.1377 -0.0320159 85.2204 4.45293 8.87624 -6.21213 -29.1064 22.7132 0.0 0.0 0.0 -3.24556 12.0177 -2.64022 0.284566 -0.0118224 -0.0420685 27.964 1.47241 -3.67982 -18.1327 0.0 0.0 -0.0 0.0 -0.0 20.5022 17.1523 -4.89718 -26.8207 -0.152651 -4.07566 -21.9017 -1.42737 -3.32061 -40.1497 0.0 0.0 0.0 0.0 0.0 
1277.7 717.822 -1374.57 -1.18256 73.6191 3.09587 0.613945 0.200248 1.19827 0.614735 0.123599 1.20859 0.617638 -0.120162 1.20893 0.615606 0.07226 1.21274 -9.00292 8.03476 -3.41787 -9.02385 17.4196 -1.47298 -0.0 0.0 -0.0 2.26033 6.52968 4.845 16.0175 -26.6951 58.1034 1.6181 -38.7114 0.568451 -29.0253 -1.86663 3.16638 -1.43902 3.18575 -8.20694 -0.0 0.0 -0.0 7.519 -3.5508 -14.565 -24.952 4.3675 -62.8163 0.355409 9.98532 -0.0310485 85.3274 4.46577 8.88111 -5.9132 -29.387 20.7134 0.0 0.0 0.0 -6.24898 14.4042 -1.68527 2.97796 -0.134038 -0.437231 28.0631 1.05104 -3.69316 -20.6891 0.0 0.0 -0.0 0.0 -0.0 19.6104 17.3326 -4.41702 -15.5737 -0.322088 -2.3609 -11.0702 -0.900487 -1.66812 -40.1704 0.0 0.0 0.0 0.0 0.0 
1268.62 719.407 -1373.31 0.0176644 73.5584 1.93878 0.507861 0.190263 1.09363 0.508518 0.120291 1.10352 0.511104 -0.104482 1.10513 0.509407 0.0713533 1.10776 -10.939 9.38334 -3.91951 -11.0663 20.306 -1.2775 -0.0 0.0 -0.0 2.53901 7.48204 5.40844 16.7303 -26.4763 58.4749 1.84701 -42.4529 0.717442 -29.6809 -1.92642 3.22546 -1.4552 4.64769 -7.64607 -0.0 0.0 -0.0 7.61579 -3.70249 -14.7481 -24.9381 5.01888 -62.3514 0.303251 8.54336 -0.0226508 85.2928 4.46162 8.87955 -6.48158 -29.2535 24.2005 0.0 0.0 0.0 -6.91284 14.1118 -1.92153 1.98864 -0.0869849 -0.292741 27.3743 -0.531334 -3.62745 -19.8913 0.0 0.0 -0.0 0.0 -0.0 18.7839 17.6804 -4.45725 -2.92501 -0.109333 -0.435531 1.90081 0.0862245 0.279878 -40.0402 0.0 0.0 0.0 0.0 0.0 
1254.09 719.454 -1369.84 -0.357462 72.2357 1.83315 0.476574 0.225128 1.04808 0.477171 0.157983 1.06028 0.480366 -0.0594177 1.07034 0.478784 0.110358 1.06629 -11.4152 9.59242 -3.86323 -11.5751 20.6648 -1.0728 -0.0 0.0 -0.0 2.52745 8.28759 5.43835 16.7628 -26.2735 58.5924 1.99659 -44.6796 0.820551 -30.4384 -1.99634 3.29288 -1.57304 5.01457 -8.25928 -0.0 0.0 -0.0 7.47415 -3.99773 -14.4672 -24.9775 5.03871 -61.673 0.328557 9.24445 -0.0265634 85.1581 4.44546 8.87339 -6.33824 -29.2363 23.3535 0.0 0.0 0.0 -7.91453 15.369 -0.682016 1.67868 -0.0727577 -0.247309 26.6767 1.15862 -3.5378 -20.3674 0.0 0.0 -0.0 0.0 -0.0 18.1345 17.5328 -4.63209 4.86098 0.230475 0.709958 11.0793 -4.75981 1.57109 -38.4157 0.0 0.0 0.0 0.0 0.0 
1239.84 711.838 -1369.47 0.754133 72.791 0.348175 0.421725 0.124967 1.01461 0.422295 0.0601552 1.0205 0.42359 -0.148213 1.01148 0.422162 0.0133824 1.02219 -13.2536 11.6108 -3.08068 -13.639 24.0103 0.692887 -0.0 0.0 -0.0 2.64195 8.84622 5.67365 17.6048 -26.4239 58.8985 2.18935 -47.3162 0.959241 -32.23 -2.16524 3.44863 -1.51863 6.0 -7.44392 -0.0 0.0 -0.0 7.31031 -4.50082 -14.1403 -25.4188 4.98258 -61.4572 0.288529 8.1343 -0.0205158 85.1569 4.44532 8.87334 -6.16953 -29.1758 22.3999 0.0 0.0 0.0 -9.80083 16.0105 0.610929 2.15862 -0.0948913 -0.317623 27.8041 0.356232 -3.66891 -21.4345 0.0 0.0 -0.0 0.0 -0.0 18.9888 17.5505 -4.66065 7.32736 0.370289 1.06222 17.2852 -9.50594 2.39036 -33.7875 0.0 0.0 0.0 0.0 0.0 
1227.42 705.574 -1369.66 1.47378 73.0888 -0.655176 0.308259 0.0361019 0.894662 0.308705 -0.0208986 0.895146 0.308533 -0.203895 0.871868 0.307478 -0.0636465 0.893125 -15.0014 13.3909 -2.38954 -15.6795 27.0143 2.41613 -0.0 0.0 -0.0 2.70055 8.03671 5.72957 17.8831 -26.5003 58.7611 2.25573 -48.1676 1.00838 -33.3133 -2.26971 3.54024 -1.47763 6.75616 -6.82565 -0.0 0.0 -0.0 7.22288 -4.95497 -13.9623 -25.671 4.99055 -61.5275 0.263754 7.44404 -0.017158 85.3297 4.46604 8.88122 -6.12706 -29.437 21.9248 0.0 0.0 0.0 -11.9471 15.7317 1.21513 3.57501 -0.163642 -0.524039 29.2026 -0.671497 -3.82975 -22.1439 0.0 0.0 -0.0 0.0 -0.0 20.8833 17.7126 -4.69794 9.1472 0.483136 1.31818 18.6953 -13.154 2.5814 -29.7455 0.0 0.0 0.0 0.0 0.0 
1214.92 704.593 -1371.35 2.80445 73.4327 -2.21743 0.227319 -0.00561662 0.838021 0.227708 -0.0589288 0.835965 0.226975 -0.230139 0.805822 0.226083 -0.0999911 0.832053 -13.2942 15.0834 -3.33234 -13.9858 30.7714 1.6796 -0.0 0.0 -0.0 2.86915 7.43604 5.99522 17.8082 -26.3893 58.8104 2.25952 -48.2153 1.0112 -34.238 -2.36025 3.61688 -1.46747 7.79545 -6.2806 -0.0 0.0 -0.0 7.47777 -5.18753 -14.44 -25.6146 4.71081 -60.5048 0.209747 5.93203 -0.0108677 85.2804 4.46013 8.87898 -6.55845 -29.5775 24.3717 0.0 0.0 0.0 -13.2544 15.4834 1.47354 4.53432 -0.213102 -0.662871 31.1118 -1.89661 -4.04401 -22.2242 0.0 0.0 -0.0 0.0 -0.0 22.6152 18.351 -5.66414 8.58112 0.44716 1.23894 16.2016 -16.6086 2.27822 -25.9482 0.0 0.0 0.0 0.0 0.0 
1202.37 700.841 -1373.36 2.26608 73.7602 -1.67118 0.168264 -0.048609 0.689208 0.168524 -0.0923656 0.684718 0.167493 -0.232325 0.65069 0.166924 -0.126647 0.679214 -15.1263 15.5231 -3.51228 -16.1073 31.7429 2.26249 -0.0 0.0 -0.0 2.95058 7.07534 6.12102 17.7328 -26.5576 58.8535 2.28804 -48.5719 1.03252 -35.8305 -2.51904 3.74541 -1.45061 8.26501 -5.95471 -0.0 0.0 -0.0 7.80798 -5.51642 -15.0562 -25.3749 4.68599 -60.3644 0.209278 5.91886 -0.0108192 85.2113 4.45184 8.87583 -6.47855 -29.3282 24.1151 0.0 0.0 0.0 -13.7256 15.2636 1.34244 4.93545 -0.234474 -0.720679 30.9184 -2.69549 -4.0319 -22.6874 0.0 0.0 -0.0 0.0 -0.0 23.956 18.2432 -6.31452 8.31394 0.430453 1.20142 16.5661 -17.2479 2.33047 -23.3506 0.0 0.0 0.0 0.0 0.0 
